<svg xmlns="http://www.w3.org/2000/svg" viewBox="0 0 979.88 963.17"><defs><style>.cls-1{fill:#f3f3f3;}</style></defs><title>Icon_Logout</title><g id="Ebene_2" data-name="Ebene 2"><g id="Ebene_1-2" data-name="Ebene 1"><path class="cls-1" d="M979.88,616c-.19,3-.52,5.94-.55,8.91-.48,47.66-.82,95.31-1.45,143-.16,12-7.19,21.3-16.72,26.85-31.74,18.48-64.17,35.79-96.23,53.74q-94.68,53-189.24,106.24c-3.33,1.87-6.76,3.58-10.22,5.21-14.56,6.83-30.85,2.7-40.89-10a25.4,25.4,0,0,1-5.84-16.77c0-42.82-.54-85.65-.9-128.47,0-1.31-.14-2.62-.26-4.66h-6.42q-122.22-.59-244.44-1.23c-11.48-.07-23-1.06-34.43-1.38-9.56-.27-16-5.71-21.9-12.33a26,26,0,0,1-6.89-18.42c.31-72.49.19-145,.19-217.46v-6.82h66.69V730.64H617.9v-6.57q0-232.22.18-464.42c0-21.95,1.7-43.91,2.91-65.85a35.73,35.73,0,0,1,3.06-13.5c1.93-3.94,5-8.13,8.73-10.25,48.33-27.68,96.87-55,145.33-82.44,9.7-5.5,19.28-11.18,28.9-16.79a28.69,28.69,0,0,0,2.68-2.3C662.6,66,516.91,67.6,370.57,67V311.76H303.69v-5.57q.13-129.74.35-259.46a158.78,158.78,0,0,1,1.81-24.85c1.73-10.72,12.38-19.64,23.21-19.82C377.86,1.29,426.67.25,475.47.15Q663.2-.21,850.91.22c31.48.06,63,1.17,94.43,1.9a72.84,72.84,0,0,1,11.4,1.26c12.22,2.24,20.93,13.86,21.1,28.29q.64,57.24,1.1,114.47c.21,25.83.23,51.66.38,77.48,0,2.48.36,4.95.56,7.42Z"/><path class="cls-1" d="M0,424a21.29,21.29,0,0,1,8-10.95q74.54-55.38,149-110.88c11.62-8.63,23.58-16.81,35.46-25.07a109,109,0,0,1,9.86-5.82c10.5-5.78,26.21,1.36,26.1,14.13-.15,15.13,1,30.27,1.2,45.41.23,14.32.05,28.65.06,43v5.87h7.06c55,.11,110,.13,164.92.41,8.95.05,17.92,1.09,26.86,2,10.19,1,16.82,7.58,23.18,15,13.72,16,13.14,49.13-3.91,63.39-5.7,4.76-12.3,8.46-18.66,12.36-1.41.87-3.54.77-5.33.78q-67,.4-133.93.72c-19.8.08-39.6,0-60.22,0,0,2.86,0,4.76,0,6.67-.2,28-.31,56-.65,84-.15,12.32-8.39,20.55-19.32,18.83-4.55-.72-9.1-3.22-13-5.84-14.66-9.8-29.25-19.71-43.51-30.07q-69.25-50.34-138.26-101C8.66,442.34,2.66,437.64,0,430Z"/></g></g></svg>