<svg xmlns="http://www.w3.org/2000/svg" viewBox="0 0 256.39 256.41"><defs><style>.cls-1{fill:#f3f3f3;}</style></defs><title>Icon_Settings</title><g id="Ebene_2" data-name="Ebene 2"><g id="Ebene_2-2" data-name="Ebene 2"><path class="cls-1" d="M55,26.44c2.42,1.25,5,2.22,7.15,3.78,3.48,2.52,6.74,5.37,10,8.19a3.8,3.8,0,0,0,5,.55,98,98,0,0,1,24.33-10c2.14-.56,2.88-1.94,3-4,.34-4.3.78-8.58,1.21-12.87.59-5.73,3.29-9.27,8.88-10.54a59.8,59.8,0,0,1,27,.05c5.8,1.34,8.47,4.83,9.17,11,.45,4,.86,8,1.15,12.05.19,2.51,1.28,3.73,3.76,4.66,7.62,2.84,15.16,5.92,22.56,9.28,2.83,1.28,4.76,1.37,7.09-.86,3-2.84,6.31-5.32,9.54-7.88,4.11-3.24,8.59-3.73,13.05-1a58.86,58.86,0,0,1,19.57,19.75c2.77,4.6,2.16,9.14-1.2,13.29-2.59,3.21-5.19,6.42-7.86,9.56-1.72,2-2,3.81-.76,6.44,3.37,7.2,6.39,14.57,9.27,22,1.56,4,1.6,4.26,6,4.61s8.58.84,12.85,1.41a10.18,10.18,0,0,1,9.13,8.35,59.37,59.37,0,0,1-.14,27.8c-1.38,5.52-5,8.12-10.76,8.63q-6,.54-12,1.15c-2.39.23-3.75,1.26-4.69,3.78-2.89,7.8-6.12,15.47-9.49,23.08-1.07,2.42-1.15,4.13.71,6.17,2.84,3.11,5.42,6.47,8.07,9.75,3.45,4.26,3.95,8.88,1,13.52a59.7,59.7,0,0,1-19.15,19.06c-5.06,3.12-9.33,2.61-14-1.1-3.23-2.57-6.43-5.18-9.57-7.86-1.91-1.63-3.57-1.63-5.95-.54-7.74,3.51-15.61,6.75-23.55,9.78-2.28.87-3.22,2-3.42,4.28-.43,4.56-.89,9.12-1.47,13.67a10.19,10.19,0,0,1-8,9.17,57.51,57.51,0,0,1-28.58.14c-5-1.25-7.62-4.85-8.17-9.92-.47-4.28-.92-8.57-1.21-12.87-.17-2.41-1.12-3.55-3.52-4.45q-12.06-4.55-23.81-9.88c-2.23-1-3.73-.88-5.45.56-3.16,2.65-6.34,5.29-9.56,7.87-4.65,3.74-8.9,4.28-14,1.18a59.8,59.8,0,0,1-19.19-19c-3-4.63-2.52-9.23.92-13.51,2.76-3.43,5.51-6.86,8.42-10.17,1.51-1.72,1.42-3.12.51-5.18-3.51-7.94-6.89-15.94-10-24.06-.82-2.17-1.87-3.19-4-3.4-4.1-.41-8.2-.83-12.31-1.18-5.82-.49-9.49-3.18-10.88-8.84a58.11,58.11,0,0,1-.18-27c1.35-6,4.66-8.57,10.81-9.25,4.28-.47,8.58-.86,12.87-1.18a3.38,3.38,0,0,0,3.51-2.78A96.74,96.74,0,0,1,39,76.82c1.19-2,.58-3.47-.66-5-2.55-3.13-5.13-6.23-7.66-9.38-4.18-5.21-4.61-9.54-1-15.13a61,61,0,0,1,18-18C49.71,28.05,52.2,27.51,55,26.44ZM71.79,128a56.42,56.42,0,1,0,56.74-56.29A56.54,56.54,0,0,0,71.79,128Z"/></g></g></svg>