<svg xmlns="http://www.w3.org/2000/svg" viewBox="0 0 159.98 223.79"><defs><style>.cls-1{fill:#f3f3f3;}</style></defs><title>Icon_User</title><g id="Ebene_2" data-name="Ebene 2"><g id="Ebene_2-2" data-name="Ebene 2"><path class="cls-1" d="M79.94,0c35,0,63.91,28.94,63.91,63.9S114.91,127.81,80,127.81,16,98.87,16,63.91,45,0,79.94,0Z"/><path class="cls-1" d="M40.73,124.7c13,7.63,25.91,11.56,40.14,11.34a68.79,68.79,0,0,0,33.79-9c3-1.7,4.89-1.44,7.37.6,6.81,5.61,14,10.74,20.63,16.55,10.43,9.18,14.69,21.46,16.19,34.89.44,4,.55,8,1,12,1,8.73-3.13,14.6-10.34,18.86-9.9,5.84-20.86,8.51-32,10.46-30.56,5.35-61,4.67-90.92-3.79-7-2-13.68-5.83-20-9.61C1.7,204.09-.24,199,0,193.21c.74-16.08,1.59-32.44,13.4-44.82C21.75,139.67,31.67,132.46,40.73,124.7Z"/></g></g></svg>